<svg width="25.000000" height="25.000000" viewBox="0 0 25 25" fill="none" xmlns="http://www.w3.org/2000/svg" xmlns:xlink="http://www.w3.org/1999/xlink">
	<desc>
			Created with Pixso.
	</desc>
	<defs>
		<clipPath id="clip185_6219">
			<rect id="fi-rs-user" width="25.000000" height="25.000000" fill="white" fill-opacity="0"/>
		</clipPath>
	</defs>
	<rect id="fi-rs-user" width="25.000000" height="25.000000" fill="#FFFFFF" fill-opacity="0"/>
	<g clip-path="url(#clip185_6219)">
		<path id="Vector" d="M21.87 25L19.79 25L19.79 19.74C19.79 18.93 19.46 18.14 18.88 17.57C18.31 16.99 17.52 16.66 16.71 16.66L8.28 16.66C7.47 16.66 6.68 16.99 6.11 17.57C5.53 18.14 5.2 18.93 5.2 19.74L5.2 25L3.12 25L3.12 19.74C3.12 18.37 3.67 17.06 4.63 16.09C5.6 15.13 6.91 14.58 8.28 14.58L16.71 14.58C18.08 14.58 19.39 15.13 20.36 16.09C21.32 17.06 21.87 18.37 21.87 19.74L21.87 25Z" fill="#454444" fill-opacity="1.000000" fill-rule="nonzero"/>
		<path id="Vector" d="M12.5 12.5C11.26 12.5 10.05 12.13 9.02 11.44C8 10.75 7.19 9.78 6.72 8.64C6.25 7.49 6.12 6.24 6.37 5.03C6.61 3.81 7.2 2.7 8.08 1.83C8.95 0.95 10.06 0.36 11.28 0.12C12.49 -0.13 13.75 0 14.89 0.47C16.03 0.94 17 1.75 17.69 2.77C18.38 3.8 18.75 5.01 18.75 6.25C18.74 7.9 18.08 9.49 16.91 10.66C15.74 11.83 14.15 12.49 12.5 12.5ZM12.5 2.08C11.67 2.08 10.87 2.32 10.18 2.78C9.5 3.24 8.96 3.89 8.65 4.65C8.33 5.41 8.25 6.25 8.41 7.06C8.57 7.87 8.97 8.61 9.55 9.19C10.13 9.77 10.87 10.17 11.68 10.33C12.49 10.49 13.33 10.41 14.09 10.09C14.85 9.78 15.5 9.25 15.96 8.56C16.42 7.87 16.66 7.07 16.66 6.25C16.66 5.14 16.22 4.08 15.44 3.3C14.66 2.52 13.6 2.08 12.5 2.08Z" fill="#454444" fill-opacity="1.000000" fill-rule="nonzero"/>
	</g>
</svg>
