<svg width="190.000000" height="32.000000" viewBox="0 0 190 32" fill="none" xmlns="http://www.w3.org/2000/svg" xmlns:xlink="http://www.w3.org/1999/xlink">
	<desc>
			Created with Pixso.
	</desc>
	<defs>
		<clipPath id="clip185_6938">
			<rect id="Layer_1" width="32.000000" height="32.000000" fill="white" fill-opacity="0"/>
		</clipPath>
		<clipPath id="clip185_6940">
			<rect id="Frame" width="30.000000" height="30.000000" transform="translate(54.000000 1.000000)" fill="white" fill-opacity="0"/>
		</clipPath>
		<clipPath id="clip185_6946">
			<rect id="Layer_1" width="32.000000" height="32.000000" transform="translate(106.000000 0.000000)" fill="white" fill-opacity="0"/>
		</clipPath>
		<clipPath id="clip185_6950">
			<rect id="Frame" width="30.000000" height="30.000000" transform="translate(160.000000 1.000000)" fill="white" fill-opacity="0"/>
		</clipPath>
	</defs>
	<rect id="Layer_1" width="32.000000" height="32.000000" fill="#FFFFFF" fill-opacity="0"/>
	<g clip-path="url(#clip185_6938)">
		<path id="Vector" d="M31.99 6.07C30.81 6.59 29.55 6.95 28.22 7.11C29.57 6.29 30.61 5.01 31.11 3.48C29.84 4.23 28.43 4.77 26.94 5.07C25.74 3.79 24.03 3 22.14 3C18.52 3 15.58 5.93 15.58 9.56C15.58 10.07 15.64 10.57 15.75 11.05C10.3 10.78 5.46 8.17 2.22 4.2C1.66 5.17 1.33 6.29 1.33 7.5C1.33 9.77 2.49 11.78 4.25 12.96C3.18 12.92 2.17 12.63 1.28 12.14C1.28 12.17 1.28 12.2 1.28 12.22C1.28 15.4 3.54 18.05 6.54 18.66C6 18.81 5.41 18.89 4.82 18.89C4.39 18.89 3.98 18.85 3.58 18.77C4.42 21.38 6.84 23.28 9.71 23.33C7.47 25.09 4.64 26.14 1.56 26.14C1.03 26.14 0.51 26.11 0 26.05C2.9 27.91 6.35 29 10.06 29C22.13 29 28.73 18.99 28.73 10.32C28.73 10.04 28.72 9.75 28.71 9.47C30 8.54 31.11 7.39 31.99 6.07Z" fill="#55ACEE" fill-opacity="1.000000" fill-rule="nonzero"/>
	</g>
	<rect id="Frame" width="30.000000" height="30.000000" transform="translate(54.000000 1.000000)" fill="#FFFFFF" fill-opacity="0"/>
	<g clip-path="url(#clip185_6940)">
		<path id="Vector" d="M59.25 1L78.75 1C81.64 1 84 3.35 84 6.25L84 25.75C84 28.64 81.64 31 78.75 31L59.25 31C56.35 31 54 28.64 54 25.75L54 6.25C54 3.35 56.35 1 59.25 1Z" fill="#007FB5" fill-opacity="1.000000" fill-rule="evenodd"/>
		<path id="Vector" d="M58.21 12.03L62.44 12.03L62.44 27.37L58.21 27.37L58.21 12.03Z" fill="#FFFFFF" fill-opacity="1.000000" fill-rule="evenodd"/>
		<path id="Vector" d="M76.59 12.03C73.47 10.84 71.21 12.85 70.24 13.98L70.24 12.03L66.02 12.03L66.02 27.37L70.24 27.37L70.24 19.28C70.22 18.25 70.59 17.26 71.29 16.5C71.49 16.27 71.73 16.08 72 15.94C72.28 15.81 72.58 15.73 72.89 15.72C73.23 15.71 73.57 15.77 73.89 15.9C74.2 16.03 74.49 16.22 74.73 16.46C75.26 17.01 75.54 17.74 75.53 18.5L75.53 27.37L80.29 27.37L80.29 17.87C80.29 17.87 80.82 13.61 76.59 12.03Z" fill="#FFFFFF" fill-opacity="1.000000" fill-rule="nonzero"/>
		<path id="Vector" d="M62.97 7.27C62.97 8.73 61.78 9.91 60.32 9.91C58.86 9.91 57.68 8.73 57.68 7.27C57.68 5.81 58.86 4.62 60.32 4.62C61.78 4.62 62.97 5.81 62.97 7.27Z" fill="#FFFFFF" fill-opacity="1.000000" fill-rule="evenodd"/>
	</g>
	<rect id="Layer_1" width="32.000000" height="32.000000" transform="translate(106.000000 0.000000)" fill="#FFFFFF" fill-opacity="0"/>
	<g clip-path="url(#clip185_6946)">
		<path id="Vector" d="M138 16C138 24.83 130.83 32 122 32C113.16 32 106 24.83 106 16C106 7.16 113.16 0 122 0C130.83 0 138 7.16 138 16Z" fill="#3B5998" fill-opacity="1.000000" fill-rule="evenodd"/>
		<path id="f_2_" d="M128 32L128 20L132 20L133 15L128 15L128 13C128 11 129 10 131 10L133 10L133 5C132 5 130.75 5 129 5C125.32 5 123 7.88 123 12L123 15L119 15L119 20L123 20L123 32L128 32Z" fill="#FFFFFF" fill-opacity="1.000000" fill-rule="nonzero"/>
	</g>
	<rect id="Frame" width="30.000000" height="30.000000" transform="translate(160.000000 1.000000)" fill="#FFFFFF" fill-opacity="0"/>
	<g clip-path="url(#clip185_6950)">
		<path id="Vector" d="M175 3.2C171.52 3.2 171.08 3.21 169.72 3.27C168.36 3.33 167.43 3.55 166.61 3.87C165.77 4.19 165.06 4.63 164.34 5.34C163.63 6.06 163.19 6.77 162.87 7.61C162.55 8.42 162.34 9.36 162.27 10.72C162.21 12.08 162.2 12.52 162.2 16C162.2 19.47 162.21 19.91 162.27 21.27C162.34 22.63 162.55 23.57 162.87 24.38C163.19 25.22 163.63 25.94 164.34 26.65C165.06 27.36 165.77 27.8 166.61 28.12C167.43 28.44 168.36 28.66 169.72 28.72C171.08 28.78 171.52 28.79 175 28.79C178.47 28.79 178.91 28.78 180.27 28.72C181.64 28.66 182.57 28.44 183.38 28.12C184.22 27.8 184.94 27.36 185.65 26.65C186.36 25.94 186.8 25.22 187.12 24.38C187.44 23.57 187.66 22.63 187.72 21.27C187.78 19.91 187.8 19.47 187.8 16C187.8 12.52 187.78 12.08 187.72 10.72C187.66 9.36 187.44 8.42 187.12 7.61C186.8 6.77 186.36 6.06 185.65 5.34C184.94 4.63 184.22 4.19 183.38 3.87C182.57 3.55 181.64 3.33 180.27 3.27C178.91 3.21 178.47 3.2 175 3.2ZM175 5.5C178.41 5.5 178.82 5.51 180.17 5.58C181.42 5.63 182.09 5.84 182.54 6.02C183.14 6.25 183.57 6.53 184.02 6.97C184.46 7.42 184.74 7.85 184.97 8.45C185.15 8.9 185.36 9.58 185.41 10.82C185.48 12.17 185.49 12.58 185.49 16C185.49 19.41 185.48 19.82 185.41 21.17C185.36 22.42 185.15 23.09 184.97 23.54C184.74 24.14 184.46 24.57 184.02 25.02C183.57 25.46 183.14 25.74 182.54 25.97C182.09 26.15 181.42 26.36 180.17 26.41C178.82 26.48 178.41 26.49 175 26.49C171.58 26.49 171.17 26.48 169.82 26.41C168.58 26.36 167.9 26.15 167.45 25.97C166.85 25.74 166.42 25.46 165.97 25.02C165.53 24.57 165.25 24.14 165.02 23.54C164.84 23.09 164.63 22.42 164.58 21.17C164.52 19.82 164.5 19.41 164.5 16C164.5 12.58 164.52 12.17 164.58 10.82C164.63 9.58 164.84 8.9 165.02 8.45C165.25 7.85 165.53 7.42 165.97 6.97C166.42 6.53 166.85 6.25 167.45 6.02C167.9 5.84 168.58 5.63 169.82 5.58C171.17 5.51 171.58 5.5 175 5.5Z" fill="#FFFFFF" fill-opacity="1.000000" fill-rule="nonzero"/>
		<path id="Vector" d="M175 20.26C172.64 20.26 170.73 18.35 170.73 16C170.73 13.64 172.64 11.73 175 11.73C177.35 11.73 179.26 13.64 179.26 16C179.26 18.35 177.35 20.26 175 20.26ZM175 9.42C171.36 9.42 168.42 12.37 168.42 16C168.42 19.63 171.36 22.57 175 22.57C178.63 22.57 181.57 19.63 181.57 16C181.57 12.37 178.63 9.42 175 9.42Z" fill="#FFFFFF" fill-opacity="1.000000" fill-rule="nonzero"/>
		<path id="Vector" d="M183.36 9.16C183.36 10.01 182.68 10.7 181.83 10.7C180.98 10.7 180.29 10.01 180.29 9.16C180.29 8.31 180.98 7.63 181.83 7.63C182.68 7.63 183.36 8.31 183.36 9.16Z" fill="#FFFFFF" fill-opacity="1.000000" fill-rule="nonzero"/>
	</g>
</svg>
