<svg width="25.000000" height="23.750000" viewBox="0 0 25 23.75" fill="none" xmlns="http://www.w3.org/2000/svg" xmlns:xlink="http://www.w3.org/1999/xlink">
	<desc>
			Created with Pixso.
	</desc>
	<defs>
		<clipPath id="clip185_6208">
			<rect id="fi-rr-angle-small-down" width="25.000000" height="23.750000" fill="white" fill-opacity="0"/>
		</clipPath>
	</defs>
	<rect id="fi-rr-angle-small-down" width="25.000000" height="23.750000" fill="#FFFFFF" fill-opacity="0"/>
	<g clip-path="url(#clip185_6208)">
		<path id="Vector" d="M19.48 8.12C19.39 8.03 19.27 7.95 19.15 7.9C19.02 7.85 18.88 7.83 18.75 7.83C18.61 7.83 18.47 7.85 18.34 7.9C18.22 7.95 18.1 8.03 18 8.12L13.23 12.65C13.14 12.74 13.02 12.82 12.9 12.87C12.77 12.92 12.63 12.94 12.5 12.94C12.36 12.94 12.22 12.92 12.09 12.87C11.97 12.82 11.85 12.74 11.75 12.65L6.98 8.12C6.89 8.03 6.77 7.95 6.65 7.9C6.52 7.85 6.38 7.83 6.25 7.83C6.11 7.83 5.97 7.85 5.84 7.9C5.72 7.95 5.6 8.03 5.5 8.12C5.31 8.3 5.2 8.56 5.2 8.82C5.2 9.08 5.31 9.33 5.5 9.51L10.29 14.06C10.87 14.61 11.67 14.93 12.5 14.93C13.32 14.93 14.12 14.61 14.7 14.06L19.48 9.51C19.68 9.33 19.79 9.08 19.79 8.82C19.79 8.56 19.68 8.3 19.48 8.12Z" fill="#454444" fill-opacity="1.000000" fill-rule="nonzero"/>
	</g>
</svg>
