<svg width="25.000000" height="25.000000" viewBox="0 0 25 25" fill="none" xmlns="http://www.w3.org/2000/svg" xmlns:xlink="http://www.w3.org/1999/xlink">
	<desc>
			Created with Pixso.
	</desc>
	<defs>
		<clipPath id="clip185_6217">
			<rect id="fi-rr-search" width="25.000000" height="25.000000" fill="white" fill-opacity="0"/>
		</clipPath>
	</defs>
	<rect id="fi-rr-search" width="25.000000" height="25.000000" fill="#FFFFFF" fill-opacity="0"/>
	<g clip-path="url(#clip185_6217)">
		<path id="Vector" d="M24.69 23.22L18.47 17C20.17 14.93 21 12.28 20.8 9.61C20.6 6.94 19.38 4.45 17.39 2.66C15.41 0.86 12.81 -0.1 10.13 -0.03C7.46 0.03 4.91 1.13 3.02 3.02C1.12 4.91 0.03 7.46 -0.04 10.13C-0.1 12.81 0.86 15.41 2.66 17.4C4.45 19.38 6.94 20.6 9.61 20.8C12.28 21 14.93 20.17 17 18.47L23.22 24.69C23.41 24.88 23.68 24.99 23.95 24.98C24.22 24.98 24.48 24.87 24.68 24.68C24.87 24.48 24.98 24.22 24.98 23.95C24.98 23.68 24.88 23.41 24.69 23.22ZM10.41 18.75C8.76 18.75 7.15 18.26 5.78 17.34C4.41 16.43 3.34 15.12 2.71 13.6C2.08 12.08 1.92 10.4 2.24 8.79C2.56 7.17 3.35 5.68 4.52 4.52C5.68 3.35 7.17 2.56 8.79 2.24C10.4 1.92 12.08 2.08 13.6 2.71C15.12 3.34 16.42 4.41 17.34 5.78C18.26 7.15 18.75 8.76 18.75 10.41C18.74 12.62 17.86 14.74 16.3 16.3C14.74 17.86 12.62 18.74 10.41 18.75Z" fill="#454444" fill-opacity="1.000000" fill-rule="nonzero"/>
	</g>
</svg>
